<?xml version="1.0" standalone="no"?><svg xmlns="http://www.w3.org/2000/svg" viewBox="0 0 1440 320"><path fill="#f20e0e" fill-opacity="1" d="M0,128L30,122.7C60,117,120,107,180,112C240,117,300,139,360,154.7C420,171,480,181,540,186.7C600,192,660,192,720,181.3C780,171,840,149,900,128C960,107,1020,85,1080,106.7C1140,128,1200,192,1260,229.3C1320,267,1380,277,1410,282.7L1440,288L1440,0L1410,0C1380,0,1320,0,1260,0C1200,0,1140,0,1080,0C1020,0,960,0,900,0C840,0,780,0,720,0C660,0,600,0,540,0C480,0,420,0,360,0C300,0,240,0,180,0C120,0,60,0,30,0L0,0Z"></path></svg>